<?xml version="1.0" encoding="utf-8"?>
<!-- Generator: Adobe Illustrator 15.1.0, SVG Export Plug-In . SVG Version: 6.00 Build 0)  -->
<!DOCTYPE svg PUBLIC "-//W3C//DTD SVG 1.1//EN" "http://www.w3.org/Graphics/SVG/1.1/DTD/svg11.dtd">
<svg version="1.1" xmlns="http://www.w3.org/2000/svg" xmlns:xlink="http://www.w3.org/1999/xlink" x="0px" y="0px"
	 width="551.908px" height="528.938px" viewBox="0 0 551.908 528.938" enable-background="new 0 0 551.908 528.938"
	 xml:space="preserve">
<g id="Layer_2">
	<path fill="none" stroke="#C02640" stroke-width="34" stroke-miterlimit="10" d="M164.719,228.293H123.84
		c0,0-53.334,85.606-64.243,85s-0.606-85-0.606-85H28.817c-4.472,0-8.098-3.625-8.098-8.098V37.391c0-4.473,3.625-8.098,8.098-8.098
		h329.805c4.473,0,8.098,3.625,8.098,8.098v158.902"/>
	<line fill="none" stroke="#C02640" stroke-width="20" stroke-miterlimit="10" x1="73.719" y1="82.293" x2="308.719" y2="82.293"/>
	
		<line fill="none" stroke="#C02640" stroke-width="20" stroke-miterlimit="10" x1="73.719" y1="113.293" x2="308.719" y2="113.293"/>
	
		<line fill="none" stroke="#C02640" stroke-width="20" stroke-miterlimit="10" x1="73.719" y1="144.293" x2="308.719" y2="144.293"/>
</g>
<g id="Layer_3">
	<path fill="none" stroke="#115673" stroke-width="36" stroke-miterlimit="10" d="M164.719,396.75c0,4.7,3.987,7.543,8.688,7.543
		h246.755c0,0,56.053,89.972,67.518,89.335c11.466-0.638,0.637-89.335,0.637-89.335h31.714c4.7,0,8.688-2.843,8.688-7.543V204.623
		c0-4.701-3.988-8.33-8.688-8.33H173.407c-4.701,0-8.688,3.628-8.688,8.33V396.75z"/>
	
		<line fill="none" stroke="#115673" stroke-width="20" stroke-miterlimit="10" x1="223.719" y1="259.293" x2="458.719" y2="259.293"/>
	
		<line fill="none" stroke="#115673" stroke-width="20" stroke-miterlimit="10" x1="223.719" y1="290.293" x2="458.719" y2="290.293"/>
	
		<line fill="none" stroke="#115673" stroke-width="20" stroke-miterlimit="10" x1="223.719" y1="321.293" x2="458.719" y2="321.293"/>
</g>
</svg>
