<?xml version="1.0" encoding="utf-8"?>
<!-- Generator: Adobe Illustrator 15.1.0, SVG Export Plug-In . SVG Version: 6.00 Build 0)  -->
<!DOCTYPE svg PUBLIC "-//W3C//DTD SVG 1.1//EN" "http://www.w3.org/Graphics/SVG/1.1/DTD/svg11.dtd">
<svg version="1.1" xmlns="http://www.w3.org/2000/svg" xmlns:xlink="http://www.w3.org/1999/xlink" x="0px" y="0px"
	 width="551.908px" height="528.938px" viewBox="0 0 551.908 528.938" enable-background="new 0 0 551.908 528.938"
	 xml:space="preserve">
<g id="Layer_1">
	
		<text transform="matrix(0.6477 0.7619 -0.7619 0.6477 111.8071 268.5156)" fill="#FFFFFF" font-family="'FuturaBT-Bold'" font-size="337">$</text>
	<path fill="#C02640" d="M535.719,430.293c0,6.627-5.373,12-12,12h-498c-6.627,0-12-5.373-12-12v-387c0-6.627,5.373-12,12-12h498
		c6.627,0,12,5.373,12,12V430.293z"/>
	<rect x="25.719" y="41.293" fill="none" width="498" height="388"/>
</g>
<g id="Layer_2">
	<rect x="42.719" y="56.293" fill="#FFFFFF" width="460" height="319"/>
	<g>
		<g>
			
				<line fill="none" stroke="#000000" stroke-width="6" stroke-miterlimit="10" x1="66.719" y1="116.293" x2="66.719" y2="356.293"/>
			<g>
				<polygon points="51.845,120.293 66.801,94.387 81.76,120.293 				"/>
			</g>
		</g>
	</g>
	<g>
		<g>
			
				<line fill="none" stroke="#000000" stroke-width="7.6508" stroke-miterlimit="10" x1="465.266" y1="352.521" x2="66.719" y2="352.182"/>
			<g>
				<polygon points="459.702,333.55 492.718,352.648 459.668,371.695 				"/>
			</g>
		</g>
	</g>
	<line fill="none" stroke="#0C8B3C" stroke-width="5" stroke-miterlimit="10" x1="66.719" y1="349.293" x2="154.719" y2="255.293"/>
	
		<line fill="none" stroke="#0C8B3C" stroke-width="5" stroke-miterlimit="10" x1="151.719" y1="256.293" x2="201.719" y2="297.293"/>
	<line fill="none" stroke="#0C8B3C" stroke-width="5" stroke-miterlimit="10" x1="199.719" y1="296.293" x2="308.174" y2="94.293"/>
	
		<line fill="none" stroke="#0C8B3C" stroke-width="5" stroke-miterlimit="10" x1="270.719" y1="169.293" x2="320.719" y2="210.293"/>
	<rect x="126.719" y="460.293" fill="#C02640" width="288" height="49"/>
</g>
<g id="Layer_3">
	<g>
		<g>
			<g>
				<g>
					<path fill="#CAC43C" stroke="#FFFFFF" stroke-width="3.12" stroke-miterlimit="10" d="M409.231,170.622l-30.401-71.62
						c9.89-4.198,19.658-6.185,30.401-6.185V170.622z"/>
				</g>
			</g>
			<g>
				<g>
					<path fill="#C02640" stroke="#FFFFFF" stroke-width="3.12" stroke-miterlimit="10" d="M409.231,170.622h-77.805
						c0-32.228,17.738-59.028,47.403-71.62L409.231,170.622z"/>
				</g>
			</g>
			<g>
				<g>
					<path fill="#0C8B3C" stroke="#FFFFFF" stroke-width="3.12" stroke-miterlimit="10" d="M409.231,170.622l41.23,65.982
						c-36.44,22.771-84.441,11.689-107.213-24.752c-7.971-12.754-11.822-26.191-11.822-41.229H409.231z"/>
				</g>
			</g>
			<g>
				<g>
					<path fill="#115673" stroke="#FFFFFF" stroke-width="3.12" stroke-miterlimit="10" d="M409.231,170.622V92.816
						c42.97,0,77.805,34.834,77.805,77.805c0,27.93-12.889,51.181-36.574,65.982L409.231,170.622z"/>
				</g>
			</g>
		</g>
		<g>
			<g>
			</g>
			<g>
			</g>
			<g>
			</g>
			<g>
			</g>
		</g>
	</g>
</g>
</svg>
