<?xml version="1.0" encoding="utf-8"?>
<!-- Generator: Adobe Illustrator 15.1.0, SVG Export Plug-In . SVG Version: 6.00 Build 0)  -->
<!DOCTYPE svg PUBLIC "-//W3C//DTD SVG 1.1//EN" "http://www.w3.org/Graphics/SVG/1.1/DTD/svg11.dtd">
<svg version="1.1" id="Layer_2" xmlns="http://www.w3.org/2000/svg" xmlns:xlink="http://www.w3.org/1999/xlink" x="0px" y="0px"
	 width="551.908px" height="528.938px" viewBox="0 0 551.908 528.938" enable-background="new 0 0 551.908 528.938"
	 xml:space="preserve">
<path fill="none" stroke="#C02640" stroke-width="49" stroke-miterlimit="10" d="M524.219,388.151
	c0,6.43-5.212,11.642-11.641,11.642H38.86c-6.429,0-11.641-5.212-11.641-11.642V124.435c0-6.43,5.212-11.642,11.641-11.642h473.719
	c6.429,0,11.641,5.212,11.641,11.642V388.151z"/>
<polygon fill="none" stroke="#C02640" stroke-width="48.5043" stroke-miterlimit="10" points="524.061,399.866 524.061,399.866 
	524.061,399.866 524.061,399.866 524.061,399.866 524.061,399.866 524.061,399.866 524.061,399.866 "/>
<path fill="none" stroke="#C02640" stroke-width="50" stroke-miterlimit="10" d="M27.219,112.793
	c0,0,208.48,139.426,242.551,139.357s250.023-136.848,250.023-136.848"/>
</svg>
